<?xml version="1.0" encoding="UTF-8"?>
<svg id="Livello_1" data-name="Livello 1" xmlns="http://www.w3.org/2000/svg" version="1.1" viewBox="0 0 3750 3750">
  <defs>
    <style>
      .cls-1 {
        fill: #000;
      }

      .cls-1, .cls-2 {
        stroke-width: 0px;
      }

      .cls-3 {
        fill: #56af31;
      }

      .cls-3, .cls-4 {
        font-family: MyriadPro-Regular, 'Myriad Pro';
        font-size: 800px;
      }

      .cls-4 {
        fill: #e62137;
      }

      .cls-5 {
        fill: #53af32;
        stroke: #4fae32;
      }

      .cls-5, .cls-6 {
        stroke-miterlimit: 10;
        stroke-width: 100px;
      }

      .cls-2 {
        fill: #fff;
      }

      .cls-6 {
        fill: #c91525;
        stroke: #c91525;
      }
    </style>
  </defs>
  <rect class="cls-2" x="-375" y="-375" width="4500" height="4500"/>
  <path class="cls-1" d="M2478.6,1902.5c0,.6,0,1,0,1.2v-1.2s0,0,0,0ZM2253.5,1901.7l1.9,1.9-1.9-1.9ZM1865.6,191.4c-949.5,0-1720.4,764.7-1730.5,1711.8,0,6.2,0,12.5,0,18.8s0,11.2,0,16.9c.2,21.4,17.6,38.7,39,38.7h34.9c10.4,0,20.4-4.2,27.7-11.6,7.3-7.4,11.4-17.4,11.3-27.8,0-5.4,0-10.7,0-16.1s0-11.6,0-17.4h0c0-.2,0-.4,0-.6,9.6-885.2,730.1-1599.7,1617.6-1599.7s1608,714.6,1617.6,1599.7c0,6,0,11.9,0,17.9,0,5.3,0,10.8-.1,16-9.6,823.6-680.2,1488.2-1506.1,1488.2S482.4,2763.3,471.1,1941.2h0c0-1.1.1-2.1,0-3.2,0-5.7-.1-11.3-.1-17s0-10.9,0-16.3h0c0-.2,0-.5,0-.7,9.1-761.9,629.5-1376.7,1393.5-1376.7s1384.5,614.8,1393.5,1376.7c0,5.7.1,11.3.1,17s0,11.3-.1,17c0,4,.5,8,1.7,11.8h0c-15.3,694.8-583.3,1253.3-1281.8,1253.3s-1272.5-564.5-1282-1264.4h0c0-.3,0-.5,0-.8,0-5.6-.1-11.3-.1-16.9s0-11.3.1-16.9c0-4-.5-7.9-1.6-11.6h0c15.2-633.3,533.3-1142,1170.2-1142s1161.4,515,1170.4,1153.7c0,.5,0,1,0,1.6h0c0,5.1.1,10.2.1,15.3s0,11.3-.1,16.9c0,4,.5,7.9,1.6,11.7h0c-15.1,571.7-483.3,1030.4-1058.6,1030.4s-1049.4-464.6-1058.9-1041.3h0c0-.3,0-.6,0-.9,0-5.6-.1-11.2-.1-16.8s0-11.2.1-16.8c0-3.9-.5-7.8-1.6-11.6h0c15-510.1,433.3-919.1,947-919.1s938.4,415.2,947.3,930.7c0,.5,0,1,0,1.5h0c0,5.1.1,10.2.1,15.3s0,11.2-.2,16.8c0,4,.5,7.9,1.6,11.6h0c-14.9,448.5-383.3,807.5-835.4,807.5h0c-455.8,0-826.3-364.8-835.7-818.3h0c0-.3,0-.7,0-1-.1-5.5-.2-11.1-.2-16.7s0-11.1.2-16.7c0-3.9-.4-7.7-1.5-11.4h0c14.8-387,333.2-696.3,723.8-696.3h0c394.5,0,715.4,315.4,724.2,707.8,0,.5,0,1,0,1.4h0c0,5,.1,10.1.1,15.1s0,11.1-.2,16.6c0,3.9.4,7.8,1.4,11.4h0c-14.6,325.4-283.1,584.8-612.2,584.8s-603.3-265-612.6-595.3h0c0-.4,0-.7,0-1.1-.1-5.4-.2-10.9-.2-16.4s0-10.9.2-16.4c.1-3.8-.3-7.5-1.3-11.1h0c14.3-264,232.9-473.7,500.5-473.7h0c271.4,0,492.5,215.8,501,485.1,0,.4,0,.9,0,1.4h0c.1,4.9.2,9.9.2,14.8s0,10.8-.3,16.2c-.1,3.7.3,7.4,1.2,11h0c-13.9,202.6-182.7,362.6-388.8,362.6s-380.5-165.4-389.4-372.7h0c0-.4,0-.7,0-1.1-.2-5.2-.3-10.6-.3-15.9s.1-10.6.3-15.9c.1-3.5-.2-6.9-.9-10.2h0c13.2-141.4,132.1-252.1,277-252.1s269.8,116.4,277.8,262.9c0,.4,0,.8,0,1.2h0c.2,4.7.3,9.3.3,14.1s-.1,10.2-.4,15.3c-.2,3,0,6,.6,8.9h0c-11.7,80.5-81.1,142.4-164.9,142.4s-158.2-66.5-165.9-151.3h0c0-.4,0-.8,0-1.1-.4-4.7-.6-9.4-.6-14.2s.2-9.5.6-14.2c0-.8.1-1.7.1-2.5h0c7.1-22.3,27.9-38.4,52.5-38.4s49.4,19.3,54.1,44.8c0,.3.1.6.2.9h0c.5,3,.8,6.1.8,9.3s-.3,6.9-.9,10.2c-2.1,11.4.9,23.2,8.3,32.1,7.4,8.9,18.4,14.1,30,14.1h35.3c19.6,0,36.1-14.4,38.7-33.9h0c1-7.4,1.5-15,1.5-22.6s-.5-15.2-1.5-22.7c-11.1-82.1-81.4-145.4-166.5-145.4s-155.4,63.3-166.5,145.4c0,.4-.1.9-.2,1.4h0c-.9,7-1.3,14.1-1.3,21.3s.5,15.2,1.5,22.6c.4,2.9,1.1,5.7,2.1,8.3h0c15.4,139.9,133.9,248.6,277.9,248.6s267.6-113.6,278.7-257.9h0c0-.5.1-1,.1-1.5.5-6.7.7-13.4.7-20.2s-.2-13.5-.7-20.2c-.3-3.8-1.1-7.4-2.3-10.8h0c-15.8-201.5-184.3-360.1-389.9-360.1s-380.5,164.7-390.6,371.8c0,.4,0,.8,0,1.2h0c-.3,6-.4,12.1-.4,18.2s.2,12.9.5,19.3c.2,4.1,1,7.9,2.3,11.6h0c16,263.2,234.5,471.8,501.7,471.8s492.4-214.9,502.3-483.8c.2-6.3.4-12.6.4-18.9s-.1-12.6-.4-18.9c-.1-4.1-.9-8-2.2-11.7h0c-15.9-325.1-284.5-583.7-613.5-583.7s-604.1,265-613.9,595.6c0,.4,0,.7,0,1.1h0c-.2,5.8-.2,11.7-.2,17.5s0,12.4.3,18.6c.1,4.2.9,8.2,2.2,11.9h0c16,386.7,334.5,695.2,725.1,695.2s715.8-315,725.5-707.3c.1-6.1.2-12.3.2-18.4s0-12.3-.2-18.4c-.1-4.1-.8-8.1-2.1-11.8h0c-15.9-448.4-384.5-807.1-836.8-807.1s-827.4,365-837.1,819c-.1,6.1-.2,12.2-.2,18.3s0,12.2.2,18.3c0,4.2.8,8.2,2.2,12h0c16,510,434.5,918.6,948.4,918.6s939-415,948.7-930.7c.1-6.1.2-12.1.2-18.2s0-12.1-.2-18.2c0-4.2-.8-8.1-2.1-11.9h0c-15.9-571.8-484.4-1030.4-1060-1030.4s-1050.6,465-1060.2,1042.3c0,.3,0,.6,0,.9h0c0,5.7-.1,11.5-.1,17.2s0,12.1.2,18.1c0,4.2.8,8.2,2.1,12h0c16,633.3,534.4,1141.9,1171.6,1141.9s1161.3-514.1,1171.8-1152.3h0c0-.5,0-1.1,0-1.6,0-6,.1-12,.1-18s0-12-.1-18c0-4.2-.8-8.1-2-11.9h0c-15.9-695-584.3-1253.6-1283.1-1253.6S591,1202.5,581.3,1903.1c0,6-.1,12-.1,18s0,12,.1,18c0,4.2.8,8.2,2.1,12h0c16,756.6,634.3,1365.1,1394.7,1365.1s1385.3-614.9,1394.9-1377.1c0-5.9.1-12,.1-17.9s0-12-.1-17.9c0-4.1-.8-8.1-2-11.9h0c-15.9-818.3-684.2-1476.8-1506.3-1476.8S369.7,1077.5,358.3,1899.8h0c-.1,1.1-.2,2.3-.2,3.5,0,5.6,0,11.2,0,16.8s0,11.5,0,17.3h0c0,1.1,0,2.3,0,3.4h0c11.1,884.7,731.7,1598.4,1619,1598.4s1608.9-714.7,1619-1600.3c0-5,0-10.1,0-15.1h0c0-.6,0-1.2,0-1.8,0-6.4,0-12.4-.1-18.8h0c-10.1-947.2-781-1711.8-1730.5-1711.8Z"/>
  <line class="cls-6" x1="1843.5" y1="2115.5" x2="1980.4" y2="1929.2"/>
  <text class="cls-4" transform="translate(1474.5 1980.2)"><tspan x="0" y="0">a</tspan></text>
  <line class="cls-5" x1="3530.6" y1="1938.1" x2="1952.6" y2="1938.1"/>
  <text class="cls-3" transform="translate(2853.6 1824.4)"><tspan x="0" y="0">b</tspan></text>
</svg>